<mxfile host="app.diagrams.net" modified="2023-04-18T22:27:24.330Z" agent="Mozilla/5.0 (Windows NT 10.0; Win64; x64) AppleWebKit/537.36 (KHTML, like Gecko) Chrome/112.0.0.0 Safari/537.36 Edg/112.0.1722.48" etag="kuxGUDkwdwqvviiJmAd5" version="21.1.8" type="device">
  <diagram name="Page-1" id="PkPkcPsdm3YvoPZqW9ZE">
    <mxGraphModel dx="3384" dy="859" grid="1" gridSize="10" guides="1" tooltips="1" connect="1" arrows="1" fold="1" page="1" pageScale="1" pageWidth="1200" pageHeight="1600" math="0" shadow="0">
      <root>
        <mxCell id="0" />
        <mxCell id="1" parent="0" />
        <mxCell id="wgL369HM5ECdO7fE-a8m-189" style="edgeStyle=orthogonalEdgeStyle;rounded=0;orthogonalLoop=1;jettySize=auto;html=1;entryX=0;entryY=0.5;entryDx=0;entryDy=0;" parent="1" source="wgL369HM5ECdO7fE-a8m-139" target="wgL369HM5ECdO7fE-a8m-187" edge="1">
          <mxGeometry relative="1" as="geometry" />
        </mxCell>
        <mxCell id="wgL369HM5ECdO7fE-a8m-194" style="edgeStyle=orthogonalEdgeStyle;rounded=0;orthogonalLoop=1;jettySize=auto;html=1;endArrow=none;endFill=0;" parent="1" source="wgL369HM5ECdO7fE-a8m-139" edge="1">
          <mxGeometry relative="1" as="geometry">
            <mxPoint x="-1430" y="217.5" as="targetPoint" />
            <Array as="points">
              <mxPoint x="-1290" y="212.5" />
              <mxPoint x="-1290" y="163.5" />
              <mxPoint x="-1430" y="163.5" />
            </Array>
          </mxGeometry>
        </mxCell>
        <mxCell id="wgL369HM5ECdO7fE-a8m-139" value="&amp;lt;p_statement&amp;gt;" style="rounded=1;whiteSpace=wrap;html=1;" parent="1" vertex="1">
          <mxGeometry x="-1410" y="198.75" width="105" height="27.5" as="geometry" />
        </mxCell>
        <mxCell id="wgL369HM5ECdO7fE-a8m-185" style="edgeStyle=orthogonalEdgeStyle;rounded=0;orthogonalLoop=1;jettySize=auto;html=1;entryX=0;entryY=0.5;entryDx=0;entryDy=0;" parent="1" source="wgL369HM5ECdO7fE-a8m-181" target="wgL369HM5ECdO7fE-a8m-184" edge="1">
          <mxGeometry relative="1" as="geometry" />
        </mxCell>
        <mxCell id="wgL369HM5ECdO7fE-a8m-181" value="&amp;lt;p_block&amp;gt;" style="text;html=1;align=center;verticalAlign=middle;resizable=0;points=[];autosize=1;strokeColor=none;fillColor=none;" parent="1" vertex="1">
          <mxGeometry x="-1570" y="158.75" width="80" height="30" as="geometry" />
        </mxCell>
        <mxCell id="wgL369HM5ECdO7fE-a8m-186" style="edgeStyle=orthogonalEdgeStyle;rounded=0;orthogonalLoop=1;jettySize=auto;html=1;" parent="1" source="wgL369HM5ECdO7fE-a8m-184" target="wgL369HM5ECdO7fE-a8m-139" edge="1">
          <mxGeometry relative="1" as="geometry" />
        </mxCell>
        <mxCell id="wgL369HM5ECdO7fE-a8m-195" style="edgeStyle=orthogonalEdgeStyle;rounded=0;orthogonalLoop=1;jettySize=auto;html=1;exitX=1;exitY=0.5;exitDx=0;exitDy=0;entryX=0;entryY=0.5;entryDx=0;entryDy=0;" parent="1" source="wgL369HM5ECdO7fE-a8m-184" target="wgL369HM5ECdO7fE-a8m-187" edge="1">
          <mxGeometry relative="1" as="geometry">
            <mxPoint x="-1270" y="257.5" as="targetPoint" />
            <Array as="points">
              <mxPoint x="-1430" y="213.5" />
              <mxPoint x="-1430" y="267.5" />
              <mxPoint x="-1270" y="267.5" />
            </Array>
          </mxGeometry>
        </mxCell>
        <mxCell id="wgL369HM5ECdO7fE-a8m-184" value="{" style="ellipse;whiteSpace=wrap;html=1;" parent="1" vertex="1">
          <mxGeometry x="-1510" y="198.75" width="60" height="30" as="geometry" />
        </mxCell>
        <mxCell id="wgL369HM5ECdO7fE-a8m-190" style="edgeStyle=orthogonalEdgeStyle;rounded=0;orthogonalLoop=1;jettySize=auto;html=1;" parent="1" source="wgL369HM5ECdO7fE-a8m-187" edge="1">
          <mxGeometry relative="1" as="geometry">
            <mxPoint x="-1170" y="212.5" as="targetPoint" />
          </mxGeometry>
        </mxCell>
        <mxCell id="wgL369HM5ECdO7fE-a8m-187" value="}" style="ellipse;whiteSpace=wrap;html=1;" parent="1" vertex="1">
          <mxGeometry x="-1270" y="197.5" width="60" height="30" as="geometry" />
        </mxCell>
        <mxCell id="wgL369HM5ECdO7fE-a8m-218" value="" style="group;movable=1;resizable=1;rotatable=1;deletable=1;editable=1;locked=0;connectable=1;" parent="1" vertex="1" connectable="0">
          <mxGeometry x="-2120" y="1360" width="202.5" height="240" as="geometry" />
        </mxCell>
        <mxCell id="wgL369HM5ECdO7fE-a8m-227" value="" style="whiteSpace=wrap;html=1;fillColor=#dae8fc;strokeColor=#6c8ebf;" parent="wgL369HM5ECdO7fE-a8m-218" vertex="1">
          <mxGeometry width="202.5" height="240" as="geometry" />
        </mxCell>
        <mxCell id="wgL369HM5ECdO7fE-a8m-5" value="&amp;lt;p_simple_type&amp;gt;" style="text;html=1;align=center;verticalAlign=middle;resizable=1;points=[];autosize=1;strokeColor=none;fillColor=none;movable=1;rotatable=1;deletable=1;editable=1;locked=0;connectable=1;" parent="wgL369HM5ECdO7fE-a8m-218" vertex="1">
          <mxGeometry width="110" height="30" as="geometry" />
        </mxCell>
        <mxCell id="wgL369HM5ECdO7fE-a8m-41" style="edgeStyle=orthogonalEdgeStyle;rounded=0;orthogonalLoop=1;jettySize=auto;html=1;exitX=1;exitY=0.5;exitDx=0;exitDy=0;movable=1;resizable=1;rotatable=1;deletable=1;editable=1;locked=0;connectable=1;" parent="wgL369HM5ECdO7fE-a8m-218" source="wgL369HM5ECdO7fE-a8m-6" edge="1">
          <mxGeometry relative="1" as="geometry">
            <mxPoint x="185" y="55" as="targetPoint" />
          </mxGeometry>
        </mxCell>
        <mxCell id="wgL369HM5ECdO7fE-a8m-6" value="INT" style="ellipse;whiteSpace=wrap;html=1;movable=1;resizable=1;rotatable=1;deletable=1;editable=1;locked=0;connectable=1;" parent="wgL369HM5ECdO7fE-a8m-218" vertex="1">
          <mxGeometry x="75" y="40" width="60" height="30" as="geometry" />
        </mxCell>
        <mxCell id="wgL369HM5ECdO7fE-a8m-10" style="edgeStyle=orthogonalEdgeStyle;rounded=0;orthogonalLoop=1;jettySize=auto;html=1;entryX=0;entryY=0.5;entryDx=0;entryDy=0;movable=1;resizable=1;rotatable=1;deletable=1;editable=1;locked=0;connectable=1;" parent="wgL369HM5ECdO7fE-a8m-218" source="wgL369HM5ECdO7fE-a8m-5" target="wgL369HM5ECdO7fE-a8m-6" edge="1">
          <mxGeometry relative="1" as="geometry" />
        </mxCell>
        <mxCell id="wgL369HM5ECdO7fE-a8m-113" style="edgeStyle=orthogonalEdgeStyle;rounded=0;orthogonalLoop=1;jettySize=auto;html=1;movable=1;resizable=1;rotatable=1;deletable=1;editable=1;locked=0;connectable=1;" parent="wgL369HM5ECdO7fE-a8m-218" source="wgL369HM5ECdO7fE-a8m-7" edge="1">
          <mxGeometry relative="1" as="geometry">
            <mxPoint x="170" y="50" as="targetPoint" />
          </mxGeometry>
        </mxCell>
        <mxCell id="wgL369HM5ECdO7fE-a8m-7" value="FLOAT" style="ellipse;whiteSpace=wrap;html=1;movable=1;resizable=1;rotatable=1;deletable=1;editable=1;locked=0;connectable=1;" parent="wgL369HM5ECdO7fE-a8m-218" vertex="1">
          <mxGeometry x="75" y="80" width="60" height="30" as="geometry" />
        </mxCell>
        <mxCell id="wgL369HM5ECdO7fE-a8m-11" style="edgeStyle=orthogonalEdgeStyle;rounded=0;orthogonalLoop=1;jettySize=auto;html=1;entryX=0;entryY=0.5;entryDx=0;entryDy=0;movable=1;resizable=1;rotatable=1;deletable=1;editable=1;locked=0;connectable=1;" parent="wgL369HM5ECdO7fE-a8m-218" source="wgL369HM5ECdO7fE-a8m-5" target="wgL369HM5ECdO7fE-a8m-7" edge="1">
          <mxGeometry relative="1" as="geometry" />
        </mxCell>
        <mxCell id="wgL369HM5ECdO7fE-a8m-114" style="edgeStyle=orthogonalEdgeStyle;rounded=0;orthogonalLoop=1;jettySize=auto;html=1;movable=1;resizable=1;rotatable=1;deletable=1;editable=1;locked=0;connectable=1;" parent="wgL369HM5ECdO7fE-a8m-218" source="wgL369HM5ECdO7fE-a8m-8" edge="1">
          <mxGeometry relative="1" as="geometry">
            <mxPoint x="170" y="90" as="targetPoint" />
          </mxGeometry>
        </mxCell>
        <mxCell id="wgL369HM5ECdO7fE-a8m-8" value="CHAR" style="ellipse;whiteSpace=wrap;html=1;movable=1;resizable=1;rotatable=1;deletable=1;editable=1;locked=0;connectable=1;" parent="wgL369HM5ECdO7fE-a8m-218" vertex="1">
          <mxGeometry x="75" y="120" width="60" height="30" as="geometry" />
        </mxCell>
        <mxCell id="wgL369HM5ECdO7fE-a8m-12" style="edgeStyle=orthogonalEdgeStyle;rounded=0;orthogonalLoop=1;jettySize=auto;html=1;entryX=0;entryY=0.5;entryDx=0;entryDy=0;movable=1;resizable=1;rotatable=1;deletable=1;editable=1;locked=0;connectable=1;" parent="wgL369HM5ECdO7fE-a8m-218" source="wgL369HM5ECdO7fE-a8m-5" target="wgL369HM5ECdO7fE-a8m-8" edge="1">
          <mxGeometry relative="1" as="geometry" />
        </mxCell>
        <mxCell id="wgL369HM5ECdO7fE-a8m-111" style="edgeStyle=orthogonalEdgeStyle;rounded=0;orthogonalLoop=1;jettySize=auto;html=1;exitX=1;exitY=0.5;exitDx=0;exitDy=0;movable=1;resizable=1;rotatable=1;deletable=1;editable=1;locked=0;connectable=1;" parent="wgL369HM5ECdO7fE-a8m-218" source="wgL369HM5ECdO7fE-a8m-107" edge="1">
          <mxGeometry relative="1" as="geometry">
            <mxPoint x="170" y="130" as="targetPoint" />
          </mxGeometry>
        </mxCell>
        <mxCell id="wgL369HM5ECdO7fE-a8m-107" value="STRING" style="ellipse;whiteSpace=wrap;html=1;movable=1;resizable=1;rotatable=1;deletable=1;editable=1;locked=0;connectable=1;" parent="wgL369HM5ECdO7fE-a8m-218" vertex="1">
          <mxGeometry x="75" y="160" width="60" height="30" as="geometry" />
        </mxCell>
        <mxCell id="wgL369HM5ECdO7fE-a8m-109" style="edgeStyle=orthogonalEdgeStyle;rounded=0;orthogonalLoop=1;jettySize=auto;html=1;entryX=0;entryY=0.5;entryDx=0;entryDy=0;movable=1;resizable=1;rotatable=1;deletable=1;editable=1;locked=0;connectable=1;" parent="wgL369HM5ECdO7fE-a8m-218" source="wgL369HM5ECdO7fE-a8m-5" target="wgL369HM5ECdO7fE-a8m-107" edge="1">
          <mxGeometry relative="1" as="geometry" />
        </mxCell>
        <mxCell id="wgL369HM5ECdO7fE-a8m-112" style="edgeStyle=orthogonalEdgeStyle;rounded=0;orthogonalLoop=1;jettySize=auto;html=1;movable=1;resizable=1;rotatable=1;deletable=1;editable=1;locked=0;connectable=1;" parent="wgL369HM5ECdO7fE-a8m-218" source="wgL369HM5ECdO7fE-a8m-108" edge="1">
          <mxGeometry relative="1" as="geometry">
            <mxPoint x="170" y="170" as="targetPoint" />
          </mxGeometry>
        </mxCell>
        <mxCell id="wgL369HM5ECdO7fE-a8m-108" value="BOOLEAN" style="ellipse;whiteSpace=wrap;html=1;movable=1;resizable=1;rotatable=1;deletable=1;editable=1;locked=0;connectable=1;" parent="wgL369HM5ECdO7fE-a8m-218" vertex="1">
          <mxGeometry x="75" y="200" width="60" height="30" as="geometry" />
        </mxCell>
        <mxCell id="wgL369HM5ECdO7fE-a8m-128" style="edgeStyle=orthogonalEdgeStyle;rounded=0;orthogonalLoop=1;jettySize=auto;html=1;entryX=0;entryY=0.5;entryDx=0;entryDy=0;movable=1;resizable=1;rotatable=1;deletable=1;editable=1;locked=0;connectable=1;" parent="wgL369HM5ECdO7fE-a8m-218" source="wgL369HM5ECdO7fE-a8m-5" target="wgL369HM5ECdO7fE-a8m-108" edge="1">
          <mxGeometry relative="1" as="geometry" />
        </mxCell>
        <mxCell id="wgL369HM5ECdO7fE-a8m-228" value="" style="group;movable=1;resizable=1;rotatable=1;deletable=1;editable=1;locked=0;connectable=1;" parent="1" vertex="1" connectable="0">
          <mxGeometry x="-2380" y="1360" width="202.5" height="240" as="geometry" />
        </mxCell>
        <mxCell id="wgL369HM5ECdO7fE-a8m-226" value="" style="whiteSpace=wrap;html=1;fillColor=#dae8fc;strokeColor=#6c8ebf;" parent="wgL369HM5ECdO7fE-a8m-228" vertex="1">
          <mxGeometry width="202.5" height="240" as="geometry" />
        </mxCell>
        <mxCell id="wgL369HM5ECdO7fE-a8m-206" value="&amp;lt;p_cte&amp;gt;" style="text;html=1;align=center;verticalAlign=middle;resizable=1;points=[];autosize=1;strokeColor=none;fillColor=none;movable=1;rotatable=1;deletable=1;editable=1;locked=0;connectable=1;container=0;" parent="wgL369HM5ECdO7fE-a8m-228" vertex="1">
          <mxGeometry width="70" height="30" as="geometry" />
        </mxCell>
        <mxCell id="wgL369HM5ECdO7fE-a8m-216" style="edgeStyle=orthogonalEdgeStyle;rounded=0;orthogonalLoop=1;jettySize=auto;html=1;movable=1;resizable=1;rotatable=1;deletable=1;editable=1;locked=0;connectable=1;" parent="wgL369HM5ECdO7fE-a8m-228" source="wgL369HM5ECdO7fE-a8m-207" edge="1">
          <mxGeometry relative="1" as="geometry">
            <mxPoint x="190" y="55" as="targetPoint" />
          </mxGeometry>
        </mxCell>
        <mxCell id="wgL369HM5ECdO7fE-a8m-207" value="CTEI" style="ellipse;whiteSpace=wrap;html=1;movable=1;resizable=1;rotatable=1;deletable=1;editable=1;locked=0;connectable=1;container=0;" parent="wgL369HM5ECdO7fE-a8m-228" vertex="1">
          <mxGeometry x="55" y="40" width="60" height="30" as="geometry" />
        </mxCell>
        <mxCell id="wgL369HM5ECdO7fE-a8m-201" style="edgeStyle=orthogonalEdgeStyle;rounded=0;orthogonalLoop=1;jettySize=auto;html=1;entryX=0;entryY=0.5;entryDx=0;entryDy=0;movable=1;resizable=1;rotatable=1;deletable=1;editable=1;locked=0;connectable=1;" parent="wgL369HM5ECdO7fE-a8m-228" source="wgL369HM5ECdO7fE-a8m-206" target="wgL369HM5ECdO7fE-a8m-207" edge="1">
          <mxGeometry relative="1" as="geometry" />
        </mxCell>
        <mxCell id="wgL369HM5ECdO7fE-a8m-208" style="edgeStyle=orthogonalEdgeStyle;rounded=0;orthogonalLoop=1;jettySize=auto;html=1;movable=1;resizable=1;rotatable=1;deletable=1;editable=1;locked=0;connectable=1;" parent="wgL369HM5ECdO7fE-a8m-228" source="wgL369HM5ECdO7fE-a8m-209" edge="1">
          <mxGeometry relative="1" as="geometry">
            <mxPoint x="150" y="50" as="targetPoint" />
          </mxGeometry>
        </mxCell>
        <mxCell id="wgL369HM5ECdO7fE-a8m-209" value="CTEF" style="ellipse;whiteSpace=wrap;html=1;movable=1;resizable=1;rotatable=1;deletable=1;editable=1;locked=0;connectable=1;container=0;" parent="wgL369HM5ECdO7fE-a8m-228" vertex="1">
          <mxGeometry x="55" y="80" width="60" height="30" as="geometry" />
        </mxCell>
        <mxCell id="wgL369HM5ECdO7fE-a8m-202" style="edgeStyle=orthogonalEdgeStyle;rounded=0;orthogonalLoop=1;jettySize=auto;html=1;entryX=0;entryY=0.5;entryDx=0;entryDy=0;movable=1;resizable=1;rotatable=1;deletable=1;editable=1;locked=0;connectable=1;" parent="wgL369HM5ECdO7fE-a8m-228" source="wgL369HM5ECdO7fE-a8m-206" target="wgL369HM5ECdO7fE-a8m-209" edge="1">
          <mxGeometry relative="1" as="geometry" />
        </mxCell>
        <mxCell id="wgL369HM5ECdO7fE-a8m-210" style="edgeStyle=orthogonalEdgeStyle;rounded=0;orthogonalLoop=1;jettySize=auto;html=1;movable=1;resizable=1;rotatable=1;deletable=1;editable=1;locked=0;connectable=1;" parent="wgL369HM5ECdO7fE-a8m-228" source="wgL369HM5ECdO7fE-a8m-211" edge="1">
          <mxGeometry relative="1" as="geometry">
            <mxPoint x="150" y="90" as="targetPoint" />
          </mxGeometry>
        </mxCell>
        <mxCell id="wgL369HM5ECdO7fE-a8m-211" value="CTEC" style="ellipse;whiteSpace=wrap;html=1;movable=1;resizable=1;rotatable=1;deletable=1;editable=1;locked=0;connectable=1;container=0;" parent="wgL369HM5ECdO7fE-a8m-228" vertex="1">
          <mxGeometry x="55" y="120" width="60" height="30" as="geometry" />
        </mxCell>
        <mxCell id="wgL369HM5ECdO7fE-a8m-203" style="edgeStyle=orthogonalEdgeStyle;rounded=0;orthogonalLoop=1;jettySize=auto;html=1;entryX=0;entryY=0.5;entryDx=0;entryDy=0;movable=1;resizable=1;rotatable=1;deletable=1;editable=1;locked=0;connectable=1;" parent="wgL369HM5ECdO7fE-a8m-228" source="wgL369HM5ECdO7fE-a8m-206" target="wgL369HM5ECdO7fE-a8m-211" edge="1">
          <mxGeometry relative="1" as="geometry" />
        </mxCell>
        <mxCell id="wgL369HM5ECdO7fE-a8m-212" style="edgeStyle=orthogonalEdgeStyle;rounded=0;orthogonalLoop=1;jettySize=auto;html=1;exitX=1;exitY=0.5;exitDx=0;exitDy=0;movable=1;resizable=1;rotatable=1;deletable=1;editable=1;locked=0;connectable=1;" parent="wgL369HM5ECdO7fE-a8m-228" source="wgL369HM5ECdO7fE-a8m-213" edge="1">
          <mxGeometry relative="1" as="geometry">
            <mxPoint x="150" y="130" as="targetPoint" />
          </mxGeometry>
        </mxCell>
        <mxCell id="wgL369HM5ECdO7fE-a8m-213" value="CTES" style="ellipse;whiteSpace=wrap;html=1;movable=1;resizable=1;rotatable=1;deletable=1;editable=1;locked=0;connectable=1;container=0;" parent="wgL369HM5ECdO7fE-a8m-228" vertex="1">
          <mxGeometry x="55" y="160" width="60" height="30" as="geometry" />
        </mxCell>
        <mxCell id="wgL369HM5ECdO7fE-a8m-204" style="edgeStyle=orthogonalEdgeStyle;rounded=0;orthogonalLoop=1;jettySize=auto;html=1;entryX=0;entryY=0.5;entryDx=0;entryDy=0;movable=1;resizable=1;rotatable=1;deletable=1;editable=1;locked=0;connectable=1;" parent="wgL369HM5ECdO7fE-a8m-228" source="wgL369HM5ECdO7fE-a8m-206" target="wgL369HM5ECdO7fE-a8m-213" edge="1">
          <mxGeometry relative="1" as="geometry" />
        </mxCell>
        <mxCell id="wgL369HM5ECdO7fE-a8m-214" style="edgeStyle=orthogonalEdgeStyle;rounded=0;orthogonalLoop=1;jettySize=auto;html=1;movable=1;resizable=1;rotatable=1;deletable=1;editable=1;locked=0;connectable=1;" parent="wgL369HM5ECdO7fE-a8m-228" source="wgL369HM5ECdO7fE-a8m-215" edge="1">
          <mxGeometry relative="1" as="geometry">
            <mxPoint x="150" y="170" as="targetPoint" />
          </mxGeometry>
        </mxCell>
        <mxCell id="wgL369HM5ECdO7fE-a8m-215" value="CTEB" style="ellipse;whiteSpace=wrap;html=1;movable=1;resizable=1;rotatable=1;deletable=1;editable=1;locked=0;connectable=1;container=0;" parent="wgL369HM5ECdO7fE-a8m-228" vertex="1">
          <mxGeometry x="55" y="200" width="60" height="30" as="geometry" />
        </mxCell>
        <mxCell id="wgL369HM5ECdO7fE-a8m-205" style="edgeStyle=orthogonalEdgeStyle;rounded=0;orthogonalLoop=1;jettySize=auto;html=1;entryX=0;entryY=0.5;entryDx=0;entryDy=0;movable=1;resizable=1;rotatable=1;deletable=1;editable=1;locked=0;connectable=1;" parent="wgL369HM5ECdO7fE-a8m-228" source="wgL369HM5ECdO7fE-a8m-206" target="wgL369HM5ECdO7fE-a8m-215" edge="1">
          <mxGeometry relative="1" as="geometry" />
        </mxCell>
        <mxCell id="wgL369HM5ECdO7fE-a8m-294" value="" style="group" parent="1" vertex="1" connectable="0">
          <mxGeometry x="-2380" y="760.0000000000001" width="295" height="186.25" as="geometry" />
        </mxCell>
        <mxCell id="wgL369HM5ECdO7fE-a8m-293" value="" style="rounded=0;whiteSpace=wrap;html=1;fillColor=#dae8fc;strokeColor=#6c8ebf;" parent="wgL369HM5ECdO7fE-a8m-294" vertex="1">
          <mxGeometry width="295" height="186.25" as="geometry" />
        </mxCell>
        <mxCell id="wgL369HM5ECdO7fE-a8m-135" value="&amp;lt;p_expression&amp;gt;" style="rounded=1;whiteSpace=wrap;html=1;" parent="wgL369HM5ECdO7fE-a8m-294" vertex="1">
          <mxGeometry x="5" y="16.25" width="105" height="27.5" as="geometry" />
        </mxCell>
        <mxCell id="wgL369HM5ECdO7fE-a8m-166" style="edgeStyle=orthogonalEdgeStyle;rounded=0;orthogonalLoop=1;jettySize=auto;html=1;" parent="wgL369HM5ECdO7fE-a8m-294" source="wgL369HM5ECdO7fE-a8m-140" edge="1">
          <mxGeometry relative="1" as="geometry">
            <mxPoint x="285.01" y="81.25" as="targetPoint" />
          </mxGeometry>
        </mxCell>
        <mxCell id="wgL369HM5ECdO7fE-a8m-180" style="edgeStyle=orthogonalEdgeStyle;rounded=0;orthogonalLoop=1;jettySize=auto;html=1;" parent="wgL369HM5ECdO7fE-a8m-294" source="wgL369HM5ECdO7fE-a8m-140" edge="1">
          <mxGeometry relative="1" as="geometry">
            <mxPoint x="185" y="136.25" as="targetPoint" />
            <Array as="points">
              <mxPoint x="225" y="81.25" />
              <mxPoint x="225" y="136.25" />
            </Array>
          </mxGeometry>
        </mxCell>
        <mxCell id="wgL369HM5ECdO7fE-a8m-140" value="&amp;lt;p_term&amp;gt;" style="rounded=1;whiteSpace=wrap;html=1;" parent="wgL369HM5ECdO7fE-a8m-294" vertex="1">
          <mxGeometry x="85" y="67.5" width="105" height="27.5" as="geometry" />
        </mxCell>
        <mxCell id="wgL369HM5ECdO7fE-a8m-144" style="edgeStyle=orthogonalEdgeStyle;rounded=0;orthogonalLoop=1;jettySize=auto;html=1;entryX=0;entryY=0.5;entryDx=0;entryDy=0;" parent="wgL369HM5ECdO7fE-a8m-294" source="wgL369HM5ECdO7fE-a8m-135" target="wgL369HM5ECdO7fE-a8m-140" edge="1">
          <mxGeometry relative="1" as="geometry">
            <Array as="points">
              <mxPoint x="45" y="81.25" />
            </Array>
          </mxGeometry>
        </mxCell>
        <mxCell id="wgL369HM5ECdO7fE-a8m-143" value="-" style="ellipse;whiteSpace=wrap;html=1;" parent="wgL369HM5ECdO7fE-a8m-294" vertex="1">
          <mxGeometry x="110" y="145" width="60" height="30" as="geometry" />
        </mxCell>
        <mxCell id="wgL369HM5ECdO7fE-a8m-178" style="edgeStyle=orthogonalEdgeStyle;rounded=0;orthogonalLoop=1;jettySize=auto;html=1;entryX=0;entryY=0.5;entryDx=0;entryDy=0;endArrow=none;endFill=0;" parent="wgL369HM5ECdO7fE-a8m-294" source="wgL369HM5ECdO7fE-a8m-141" target="wgL369HM5ECdO7fE-a8m-143" edge="1">
          <mxGeometry relative="1" as="geometry">
            <Array as="points">
              <mxPoint x="85" y="121.25" />
              <mxPoint x="85" y="160.25" />
            </Array>
          </mxGeometry>
        </mxCell>
        <mxCell id="wgL369HM5ECdO7fE-a8m-196" style="edgeStyle=orthogonalEdgeStyle;rounded=0;orthogonalLoop=1;jettySize=auto;html=1;" parent="wgL369HM5ECdO7fE-a8m-294" source="wgL369HM5ECdO7fE-a8m-141" edge="1">
          <mxGeometry relative="1" as="geometry">
            <mxPoint x="55" y="76.25" as="targetPoint" />
          </mxGeometry>
        </mxCell>
        <mxCell id="wgL369HM5ECdO7fE-a8m-141" value="+" style="ellipse;whiteSpace=wrap;html=1;" parent="wgL369HM5ECdO7fE-a8m-294" vertex="1">
          <mxGeometry x="107.5" y="106.25" width="60" height="30" as="geometry" />
        </mxCell>
        <mxCell id="wgL369HM5ECdO7fE-a8m-176" style="edgeStyle=orthogonalEdgeStyle;rounded=0;orthogonalLoop=1;jettySize=auto;html=1;entryX=1;entryY=0.5;entryDx=0;entryDy=0;endArrow=none;endFill=0;" parent="wgL369HM5ECdO7fE-a8m-294" source="wgL369HM5ECdO7fE-a8m-143" target="wgL369HM5ECdO7fE-a8m-141" edge="1">
          <mxGeometry relative="1" as="geometry">
            <Array as="points">
              <mxPoint x="188" y="160.25" />
              <mxPoint x="188" y="121.25" />
            </Array>
          </mxGeometry>
        </mxCell>
        <mxCell id="wgL369HM5ECdO7fE-a8m-308" value="" style="group" parent="1" vertex="1" connectable="0">
          <mxGeometry x="-2380" y="960" width="298.75" height="186.25" as="geometry" />
        </mxCell>
        <mxCell id="wgL369HM5ECdO7fE-a8m-307" value="" style="rounded=0;whiteSpace=wrap;html=1;fillColor=#dae8fc;strokeColor=#6c8ebf;" parent="wgL369HM5ECdO7fE-a8m-308" vertex="1">
          <mxGeometry width="298.75" height="186.25" as="geometry" />
        </mxCell>
        <mxCell id="wgL369HM5ECdO7fE-a8m-284" value="&amp;lt;p_term&amp;gt;" style="rounded=1;whiteSpace=wrap;html=1;" parent="wgL369HM5ECdO7fE-a8m-308" vertex="1">
          <mxGeometry x="8.75" y="16.25" width="105" height="27.5" as="geometry" />
        </mxCell>
        <mxCell id="wgL369HM5ECdO7fE-a8m-285" style="edgeStyle=orthogonalEdgeStyle;rounded=0;orthogonalLoop=1;jettySize=auto;html=1;" parent="wgL369HM5ECdO7fE-a8m-308" source="wgL369HM5ECdO7fE-a8m-287" edge="1">
          <mxGeometry relative="1" as="geometry">
            <mxPoint x="288.76" y="81.25" as="targetPoint" />
          </mxGeometry>
        </mxCell>
        <mxCell id="wgL369HM5ECdO7fE-a8m-286" style="edgeStyle=orthogonalEdgeStyle;rounded=0;orthogonalLoop=1;jettySize=auto;html=1;" parent="wgL369HM5ECdO7fE-a8m-308" source="wgL369HM5ECdO7fE-a8m-287" edge="1">
          <mxGeometry relative="1" as="geometry">
            <mxPoint x="188.75" y="136.25" as="targetPoint" />
            <Array as="points">
              <mxPoint x="228.75" y="81.25" />
              <mxPoint x="228.75" y="136.25" />
            </Array>
          </mxGeometry>
        </mxCell>
        <mxCell id="wgL369HM5ECdO7fE-a8m-287" value="&amp;lt;p_factor&amp;gt;" style="rounded=1;whiteSpace=wrap;html=1;" parent="wgL369HM5ECdO7fE-a8m-308" vertex="1">
          <mxGeometry x="88.75" y="67.5" width="105" height="27.5" as="geometry" />
        </mxCell>
        <mxCell id="wgL369HM5ECdO7fE-a8m-283" style="edgeStyle=orthogonalEdgeStyle;rounded=0;orthogonalLoop=1;jettySize=auto;html=1;entryX=0;entryY=0.5;entryDx=0;entryDy=0;" parent="wgL369HM5ECdO7fE-a8m-308" source="wgL369HM5ECdO7fE-a8m-284" target="wgL369HM5ECdO7fE-a8m-287" edge="1">
          <mxGeometry relative="1" as="geometry">
            <Array as="points">
              <mxPoint x="48.75" y="81.25" />
            </Array>
          </mxGeometry>
        </mxCell>
        <mxCell id="wgL369HM5ECdO7fE-a8m-289" value="/" style="ellipse;whiteSpace=wrap;html=1;" parent="wgL369HM5ECdO7fE-a8m-308" vertex="1">
          <mxGeometry x="113.75" y="145" width="60" height="30" as="geometry" />
        </mxCell>
        <mxCell id="wgL369HM5ECdO7fE-a8m-290" style="edgeStyle=orthogonalEdgeStyle;rounded=0;orthogonalLoop=1;jettySize=auto;html=1;entryX=0;entryY=0.5;entryDx=0;entryDy=0;endArrow=none;endFill=0;" parent="wgL369HM5ECdO7fE-a8m-308" source="wgL369HM5ECdO7fE-a8m-292" target="wgL369HM5ECdO7fE-a8m-289" edge="1">
          <mxGeometry relative="1" as="geometry">
            <Array as="points">
              <mxPoint x="88.75" y="121.25" />
              <mxPoint x="88.75" y="160.25" />
            </Array>
          </mxGeometry>
        </mxCell>
        <mxCell id="wgL369HM5ECdO7fE-a8m-291" style="edgeStyle=orthogonalEdgeStyle;rounded=0;orthogonalLoop=1;jettySize=auto;html=1;" parent="wgL369HM5ECdO7fE-a8m-308" source="wgL369HM5ECdO7fE-a8m-292" edge="1">
          <mxGeometry relative="1" as="geometry">
            <mxPoint x="58.75" y="76.25" as="targetPoint" />
          </mxGeometry>
        </mxCell>
        <mxCell id="wgL369HM5ECdO7fE-a8m-292" value="*" style="ellipse;whiteSpace=wrap;html=1;" parent="wgL369HM5ECdO7fE-a8m-308" vertex="1">
          <mxGeometry x="111.25" y="106.25" width="60" height="30" as="geometry" />
        </mxCell>
        <mxCell id="wgL369HM5ECdO7fE-a8m-288" style="edgeStyle=orthogonalEdgeStyle;rounded=0;orthogonalLoop=1;jettySize=auto;html=1;entryX=1;entryY=0.5;entryDx=0;entryDy=0;endArrow=none;endFill=0;" parent="wgL369HM5ECdO7fE-a8m-308" source="wgL369HM5ECdO7fE-a8m-289" target="wgL369HM5ECdO7fE-a8m-292" edge="1">
          <mxGeometry relative="1" as="geometry">
            <Array as="points">
              <mxPoint x="191.75" y="160.25" />
              <mxPoint x="191.75" y="121.25" />
            </Array>
          </mxGeometry>
        </mxCell>
        <mxCell id="wgL369HM5ECdO7fE-a8m-311" value="" style="group" parent="1" vertex="1" connectable="0">
          <mxGeometry x="-2380" y="1160" width="262.5" height="180" as="geometry" />
        </mxCell>
        <mxCell id="wgL369HM5ECdO7fE-a8m-309" value="" style="rounded=0;whiteSpace=wrap;html=1;fillColor=#dae8fc;strokeColor=#6c8ebf;" parent="wgL369HM5ECdO7fE-a8m-311" vertex="1">
          <mxGeometry width="262.5" height="180" as="geometry" />
        </mxCell>
        <mxCell id="wgL369HM5ECdO7fE-a8m-200" value="(" style="ellipse;whiteSpace=wrap;html=1;" parent="wgL369HM5ECdO7fE-a8m-311" vertex="1">
          <mxGeometry x="42.5" y="140" width="35" height="31.25" as="geometry" />
        </mxCell>
        <mxCell id="wgL369HM5ECdO7fE-a8m-256" style="edgeStyle=orthogonalEdgeStyle;rounded=0;orthogonalLoop=1;jettySize=auto;html=1;" parent="wgL369HM5ECdO7fE-a8m-311" source="wgL369HM5ECdO7fE-a8m-220" target="wgL369HM5ECdO7fE-a8m-200" edge="1">
          <mxGeometry relative="1" as="geometry" />
        </mxCell>
        <mxCell id="wgL369HM5ECdO7fE-a8m-220" value="&lt;span style=&quot;color: rgb(0, 0, 0); font-family: Helvetica; font-size: 12px; font-style: normal; font-variant-ligatures: normal; font-variant-caps: normal; font-weight: 400; letter-spacing: normal; orphans: 2; text-align: center; text-indent: 0px; text-transform: none; widows: 2; word-spacing: 0px; -webkit-text-stroke-width: 0px; background-color: rgb(251, 251, 251); text-decoration-thickness: initial; text-decoration-style: initial; text-decoration-color: initial; float: none; display: inline !important;&quot;&gt;&amp;lt;p_factor&amp;gt;&lt;/span&gt;" style="text;whiteSpace=wrap;html=1;" parent="wgL369HM5ECdO7fE-a8m-311" vertex="1">
          <mxGeometry x="27.5" y="10" width="65" height="30" as="geometry" />
        </mxCell>
        <mxCell id="wgL369HM5ECdO7fE-a8m-263" style="edgeStyle=orthogonalEdgeStyle;rounded=0;orthogonalLoop=1;jettySize=auto;html=1;" parent="wgL369HM5ECdO7fE-a8m-311" source="wgL369HM5ECdO7fE-a8m-222" edge="1">
          <mxGeometry relative="1" as="geometry">
            <mxPoint x="202.5" y="60" as="targetPoint" />
          </mxGeometry>
        </mxCell>
        <mxCell id="wgL369HM5ECdO7fE-a8m-222" value="&amp;lt;p_cte&amp;gt;" style="rounded=1;whiteSpace=wrap;html=1;" parent="wgL369HM5ECdO7fE-a8m-311" vertex="1">
          <mxGeometry x="92.5" y="90" width="80" height="27.5" as="geometry" />
        </mxCell>
        <mxCell id="wgL369HM5ECdO7fE-a8m-224" style="edgeStyle=orthogonalEdgeStyle;rounded=0;orthogonalLoop=1;jettySize=auto;html=1;entryX=0;entryY=0.5;entryDx=0;entryDy=0;" parent="wgL369HM5ECdO7fE-a8m-311" source="wgL369HM5ECdO7fE-a8m-220" target="wgL369HM5ECdO7fE-a8m-222" edge="1">
          <mxGeometry relative="1" as="geometry" />
        </mxCell>
        <mxCell id="wgL369HM5ECdO7fE-a8m-251" style="edgeStyle=orthogonalEdgeStyle;rounded=0;orthogonalLoop=1;jettySize=auto;html=1;" parent="wgL369HM5ECdO7fE-a8m-311" source="wgL369HM5ECdO7fE-a8m-247" edge="1">
          <mxGeometry relative="1" as="geometry">
            <mxPoint x="242.5" y="65" as="targetPoint" />
          </mxGeometry>
        </mxCell>
        <mxCell id="wgL369HM5ECdO7fE-a8m-247" value="ID" style="ellipse;whiteSpace=wrap;html=1;" parent="wgL369HM5ECdO7fE-a8m-311" vertex="1">
          <mxGeometry x="102.5" y="50" width="60" height="30" as="geometry" />
        </mxCell>
        <mxCell id="wgL369HM5ECdO7fE-a8m-248" style="edgeStyle=orthogonalEdgeStyle;rounded=0;orthogonalLoop=1;jettySize=auto;html=1;exitX=0.5;exitY=1;exitDx=0;exitDy=0;entryX=0;entryY=0.5;entryDx=0;entryDy=0;" parent="wgL369HM5ECdO7fE-a8m-311" source="wgL369HM5ECdO7fE-a8m-220" target="wgL369HM5ECdO7fE-a8m-247" edge="1">
          <mxGeometry relative="1" as="geometry" />
        </mxCell>
        <mxCell id="wgL369HM5ECdO7fE-a8m-249" value="&amp;lt;p_exp&amp;gt;" style="rounded=1;whiteSpace=wrap;html=1;" parent="wgL369HM5ECdO7fE-a8m-311" vertex="1">
          <mxGeometry x="92.5" y="141.8800000000001" width="80" height="27.5" as="geometry" />
        </mxCell>
        <mxCell id="wgL369HM5ECdO7fE-a8m-257" style="edgeStyle=orthogonalEdgeStyle;rounded=0;orthogonalLoop=1;jettySize=auto;html=1;entryX=0;entryY=0.5;entryDx=0;entryDy=0;" parent="wgL369HM5ECdO7fE-a8m-311" source="wgL369HM5ECdO7fE-a8m-200" target="wgL369HM5ECdO7fE-a8m-249" edge="1">
          <mxGeometry relative="1" as="geometry" />
        </mxCell>
        <mxCell id="wgL369HM5ECdO7fE-a8m-264" style="edgeStyle=orthogonalEdgeStyle;rounded=0;orthogonalLoop=1;jettySize=auto;html=1;" parent="wgL369HM5ECdO7fE-a8m-311" source="wgL369HM5ECdO7fE-a8m-255" edge="1">
          <mxGeometry relative="1" as="geometry">
            <mxPoint x="200" y="100" as="targetPoint" />
          </mxGeometry>
        </mxCell>
        <mxCell id="wgL369HM5ECdO7fE-a8m-255" value=")" style="ellipse;whiteSpace=wrap;html=1;" parent="wgL369HM5ECdO7fE-a8m-311" vertex="1">
          <mxGeometry x="182.5" y="140" width="35" height="31.25" as="geometry" />
        </mxCell>
        <mxCell id="wgL369HM5ECdO7fE-a8m-261" style="edgeStyle=orthogonalEdgeStyle;rounded=0;orthogonalLoop=1;jettySize=auto;html=1;entryX=0;entryY=0.5;entryDx=0;entryDy=0;" parent="wgL369HM5ECdO7fE-a8m-311" source="wgL369HM5ECdO7fE-a8m-249" target="wgL369HM5ECdO7fE-a8m-255" edge="1">
          <mxGeometry relative="1" as="geometry" />
        </mxCell>
        <mxCell id="HmtyADd9bvggswju7NMW-11" value="&amp;lt;p_program&lt;span style=&quot;background-color: initial;&quot;&gt;&amp;gt;&lt;/span&gt;" style="text;html=1;align=center;verticalAlign=middle;resizable=0;points=[];autosize=1;strokeColor=none;fillColor=none;" vertex="1" parent="1">
          <mxGeometry x="-2370" y="21.25" width="100" height="30" as="geometry" />
        </mxCell>
        <mxCell id="HmtyADd9bvggswju7NMW-12" value="PROGRAM" style="ellipse;whiteSpace=wrap;html=1;" vertex="1" parent="1">
          <mxGeometry x="-2360" y="70" width="80" height="30" as="geometry" />
        </mxCell>
        <mxCell id="HmtyADd9bvggswju7NMW-13" value="(" style="ellipse;whiteSpace=wrap;html=1;" vertex="1" parent="1">
          <mxGeometry x="-2270" y="70" width="60" height="30" as="geometry" />
        </mxCell>
        <mxCell id="HmtyADd9bvggswju7NMW-14" value=")" style="ellipse;whiteSpace=wrap;html=1;" vertex="1" parent="1">
          <mxGeometry x="-2200" y="70" width="60" height="30" as="geometry" />
        </mxCell>
        <mxCell id="HmtyADd9bvggswju7NMW-15" value="{" style="ellipse;whiteSpace=wrap;html=1;" vertex="1" parent="1">
          <mxGeometry x="-2130" y="70" width="60" height="30" as="geometry" />
        </mxCell>
        <mxCell id="HmtyADd9bvggswju7NMW-16" value="}" style="ellipse;whiteSpace=wrap;html=1;" vertex="1" parent="1">
          <mxGeometry x="-1930" y="67.5" width="60" height="30" as="geometry" />
        </mxCell>
        <mxCell id="HmtyADd9bvggswju7NMW-17" value="&amp;lt;p_block&amp;gt;" style="rounded=1;whiteSpace=wrap;html=1;" vertex="1" parent="1">
          <mxGeometry x="-2050" y="67.5" width="105" height="27.5" as="geometry" />
        </mxCell>
        <mxCell id="HmtyADd9bvggswju7NMW-18" value="" style="group" vertex="1" connectable="0" parent="1">
          <mxGeometry x="-1990" y="1130" width="165" height="120" as="geometry" />
        </mxCell>
        <mxCell id="wgL369HM5ECdO7fE-a8m-117" value="&amp;lt;p_type&amp;gt;" style="text;html=1;align=center;verticalAlign=middle;resizable=0;points=[];autosize=1;strokeColor=none;fillColor=none;" parent="HmtyADd9bvggswju7NMW-18" vertex="1">
          <mxGeometry width="70" height="30" as="geometry" />
        </mxCell>
        <mxCell id="wgL369HM5ECdO7fE-a8m-119" value="&amp;lt;p_simple_type&amp;gt;" style="rounded=1;whiteSpace=wrap;html=1;" parent="HmtyADd9bvggswju7NMW-18" vertex="1">
          <mxGeometry x="60" y="48.75" width="105" height="27.5" as="geometry" />
        </mxCell>
        <mxCell id="wgL369HM5ECdO7fE-a8m-129" style="edgeStyle=orthogonalEdgeStyle;rounded=0;orthogonalLoop=1;jettySize=auto;html=1;entryX=0;entryY=0.5;entryDx=0;entryDy=0;" parent="HmtyADd9bvggswju7NMW-18" source="wgL369HM5ECdO7fE-a8m-117" target="wgL369HM5ECdO7fE-a8m-119" edge="1">
          <mxGeometry relative="1" as="geometry" />
        </mxCell>
        <mxCell id="wgL369HM5ECdO7fE-a8m-127" value="&amp;lt;p_complex_type&amp;gt;" style="rounded=1;whiteSpace=wrap;html=1;" parent="HmtyADd9bvggswju7NMW-18" vertex="1">
          <mxGeometry x="60" y="92.5" width="105" height="27.5" as="geometry" />
        </mxCell>
        <mxCell id="wgL369HM5ECdO7fE-a8m-130" style="edgeStyle=orthogonalEdgeStyle;rounded=0;orthogonalLoop=1;jettySize=auto;html=1;entryX=0;entryY=0.5;entryDx=0;entryDy=0;" parent="HmtyADd9bvggswju7NMW-18" source="wgL369HM5ECdO7fE-a8m-117" target="wgL369HM5ECdO7fE-a8m-127" edge="1">
          <mxGeometry relative="1" as="geometry" />
        </mxCell>
        <mxCell id="HmtyADd9bvggswju7NMW-19" value="" style="group" vertex="1" connectable="0" parent="1">
          <mxGeometry x="-1840" y="1320" width="750" height="120" as="geometry" />
        </mxCell>
        <mxCell id="wgL369HM5ECdO7fE-a8m-70" value="&amp;lt;p_function&amp;gt;" style="text;html=1;align=center;verticalAlign=middle;resizable=0;points=[];autosize=1;strokeColor=none;fillColor=none;" parent="HmtyADd9bvggswju7NMW-19" vertex="1">
          <mxGeometry width="90" height="30" as="geometry" />
        </mxCell>
        <mxCell id="wgL369HM5ECdO7fE-a8m-72" value="FUNCTION" style="ellipse;whiteSpace=wrap;html=1;" parent="HmtyADd9bvggswju7NMW-19" vertex="1">
          <mxGeometry x="65" y="40" width="70" height="50" as="geometry" />
        </mxCell>
        <mxCell id="wgL369HM5ECdO7fE-a8m-69" style="edgeStyle=orthogonalEdgeStyle;rounded=0;orthogonalLoop=1;jettySize=auto;html=1;entryX=0;entryY=0.5;entryDx=0;entryDy=0;" parent="HmtyADd9bvggswju7NMW-19" source="wgL369HM5ECdO7fE-a8m-70" target="wgL369HM5ECdO7fE-a8m-72" edge="1">
          <mxGeometry relative="1" as="geometry" />
        </mxCell>
        <mxCell id="wgL369HM5ECdO7fE-a8m-77" value="&amp;lt;p_simple_type&amp;gt;" style="rounded=1;whiteSpace=wrap;html=1;" parent="HmtyADd9bvggswju7NMW-19" vertex="1">
          <mxGeometry x="165" y="51.25" width="105" height="27.5" as="geometry" />
        </mxCell>
        <mxCell id="wgL369HM5ECdO7fE-a8m-71" style="edgeStyle=orthogonalEdgeStyle;rounded=0;orthogonalLoop=1;jettySize=auto;html=1;exitX=1;exitY=0.5;exitDx=0;exitDy=0;entryX=0;entryY=0.5;entryDx=0;entryDy=0;" parent="HmtyADd9bvggswju7NMW-19" source="wgL369HM5ECdO7fE-a8m-72" target="wgL369HM5ECdO7fE-a8m-77" edge="1">
          <mxGeometry relative="1" as="geometry" />
        </mxCell>
        <mxCell id="wgL369HM5ECdO7fE-a8m-97" value="VOID" style="ellipse;whiteSpace=wrap;html=1;" parent="HmtyADd9bvggswju7NMW-19" vertex="1">
          <mxGeometry x="187.5" y="90" width="60" height="30" as="geometry" />
        </mxCell>
        <mxCell id="wgL369HM5ECdO7fE-a8m-98" value="ID" style="ellipse;whiteSpace=wrap;html=1;" parent="HmtyADd9bvggswju7NMW-19" vertex="1">
          <mxGeometry x="305" y="48.75" width="60" height="30" as="geometry" />
        </mxCell>
        <mxCell id="wgL369HM5ECdO7fE-a8m-105" value="&amp;lt;p_vars&amp;gt;" style="rounded=1;whiteSpace=wrap;html=1;" parent="HmtyADd9bvggswju7NMW-19" vertex="1">
          <mxGeometry x="515" y="48.75" width="105" height="27.5" as="geometry" />
        </mxCell>
        <mxCell id="wgL369HM5ECdO7fE-a8m-106" value="&amp;lt;p_body&amp;gt;" style="rounded=1;whiteSpace=wrap;html=1;" parent="HmtyADd9bvggswju7NMW-19" vertex="1">
          <mxGeometry x="645" y="48.75" width="105" height="27.5" as="geometry" />
        </mxCell>
        <mxCell id="HmtyADd9bvggswju7NMW-20" value="" style="group" vertex="1" connectable="0" parent="1">
          <mxGeometry x="-1650" y="750" width="420" height="70" as="geometry" />
        </mxCell>
        <mxCell id="wgL369HM5ECdO7fE-a8m-1" value="&amp;lt;p_variable_declaration&amp;gt;" style="text;html=1;align=center;verticalAlign=middle;resizable=0;points=[];autosize=1;strokeColor=none;fillColor=none;" parent="HmtyADd9bvggswju7NMW-20" vertex="1">
          <mxGeometry y="3.75" width="160" height="30" as="geometry" />
        </mxCell>
        <mxCell id="wgL369HM5ECdO7fE-a8m-4" value="ID" style="ellipse;whiteSpace=wrap;html=1;" parent="HmtyADd9bvggswju7NMW-20" vertex="1">
          <mxGeometry x="190" y="40" width="60" height="30" as="geometry" />
        </mxCell>
        <mxCell id="wgL369HM5ECdO7fE-a8m-133" style="edgeStyle=orthogonalEdgeStyle;rounded=0;orthogonalLoop=1;jettySize=auto;html=1;exitX=1;exitY=0.5;exitDx=0;exitDy=0;entryX=0;entryY=0.5;entryDx=0;entryDy=0;" parent="HmtyADd9bvggswju7NMW-20" source="wgL369HM5ECdO7fE-a8m-21" target="wgL369HM5ECdO7fE-a8m-4" edge="1">
          <mxGeometry relative="1" as="geometry" />
        </mxCell>
        <mxCell id="wgL369HM5ECdO7fE-a8m-21" value="&amp;lt;p_type&amp;gt;" style="rounded=1;whiteSpace=wrap;html=1;" parent="HmtyADd9bvggswju7NMW-20" vertex="1">
          <mxGeometry x="100" y="42.5" width="60" height="25" as="geometry" />
        </mxCell>
        <mxCell id="wgL369HM5ECdO7fE-a8m-132" style="edgeStyle=orthogonalEdgeStyle;rounded=0;orthogonalLoop=1;jettySize=auto;html=1;entryX=0;entryY=0.5;entryDx=0;entryDy=0;" parent="HmtyADd9bvggswju7NMW-20" source="wgL369HM5ECdO7fE-a8m-1" target="wgL369HM5ECdO7fE-a8m-21" edge="1">
          <mxGeometry relative="1" as="geometry" />
        </mxCell>
        <mxCell id="wgL369HM5ECdO7fE-a8m-134" style="edgeStyle=orthogonalEdgeStyle;rounded=0;orthogonalLoop=1;jettySize=auto;html=1;exitX=0;exitY=0.5;exitDx=0;exitDy=0;" parent="HmtyADd9bvggswju7NMW-20" source="wgL369HM5ECdO7fE-a8m-42" edge="1">
          <mxGeometry relative="1" as="geometry">
            <mxPoint x="170" y="52.5" as="targetPoint" />
          </mxGeometry>
        </mxCell>
        <mxCell id="wgL369HM5ECdO7fE-a8m-42" value="," style="ellipse;whiteSpace=wrap;html=1;" parent="HmtyADd9bvggswju7NMW-20" vertex="1">
          <mxGeometry x="190" width="60" height="30" as="geometry" />
        </mxCell>
        <mxCell id="wgL369HM5ECdO7fE-a8m-50" style="edgeStyle=orthogonalEdgeStyle;rounded=0;orthogonalLoop=1;jettySize=auto;html=1;exitX=1;exitY=0.5;exitDx=0;exitDy=0;entryX=1;entryY=0.5;entryDx=0;entryDy=0;" parent="HmtyADd9bvggswju7NMW-20" source="wgL369HM5ECdO7fE-a8m-4" target="wgL369HM5ECdO7fE-a8m-42" edge="1">
          <mxGeometry relative="1" as="geometry">
            <mxPoint x="242" y="-18" as="targetPoint" />
            <Array as="points">
              <mxPoint x="270" y="54.5" />
              <mxPoint x="270" y="14.5" />
            </Array>
          </mxGeometry>
        </mxCell>
        <mxCell id="wgL369HM5ECdO7fE-a8m-54" style="edgeStyle=orthogonalEdgeStyle;rounded=0;orthogonalLoop=1;jettySize=auto;html=1;" parent="HmtyADd9bvggswju7NMW-20" source="wgL369HM5ECdO7fE-a8m-43" edge="1">
          <mxGeometry relative="1" as="geometry">
            <mxPoint x="420" y="55" as="targetPoint" />
          </mxGeometry>
        </mxCell>
        <mxCell id="wgL369HM5ECdO7fE-a8m-43" value=";" style="ellipse;whiteSpace=wrap;html=1;" parent="HmtyADd9bvggswju7NMW-20" vertex="1">
          <mxGeometry x="310" y="40" width="60" height="30" as="geometry" />
        </mxCell>
        <mxCell id="wgL369HM5ECdO7fE-a8m-48" style="edgeStyle=orthogonalEdgeStyle;rounded=0;orthogonalLoop=1;jettySize=auto;html=1;entryX=0;entryY=0.5;entryDx=0;entryDy=0;" parent="HmtyADd9bvggswju7NMW-20" source="wgL369HM5ECdO7fE-a8m-4" target="wgL369HM5ECdO7fE-a8m-43" edge="1">
          <mxGeometry relative="1" as="geometry" />
        </mxCell>
        <mxCell id="HmtyADd9bvggswju7NMW-21" value="" style="group" vertex="1" connectable="0" parent="1">
          <mxGeometry x="-1670" y="900" width="190" height="70" as="geometry" />
        </mxCell>
        <mxCell id="wgL369HM5ECdO7fE-a8m-115" value="&amp;lt;p_complex_type&amp;gt;" style="text;html=1;align=center;verticalAlign=middle;resizable=0;points=[];autosize=1;strokeColor=none;fillColor=none;" parent="HmtyADd9bvggswju7NMW-21" vertex="1">
          <mxGeometry width="120" height="30" as="geometry" />
        </mxCell>
        <mxCell id="wgL369HM5ECdO7fE-a8m-124" value="&amp;lt;p_array&amp;gt;" style="rounded=1;whiteSpace=wrap;html=1;" parent="HmtyADd9bvggswju7NMW-21" vertex="1">
          <mxGeometry x="85" y="42.5" width="105" height="27.5" as="geometry" />
        </mxCell>
        <mxCell id="wgL369HM5ECdO7fE-a8m-125" style="edgeStyle=orthogonalEdgeStyle;rounded=0;orthogonalLoop=1;jettySize=auto;html=1;entryX=0;entryY=0.5;entryDx=0;entryDy=0;" parent="HmtyADd9bvggswju7NMW-21" source="wgL369HM5ECdO7fE-a8m-115" target="wgL369HM5ECdO7fE-a8m-124" edge="1">
          <mxGeometry relative="1" as="geometry" />
        </mxCell>
      </root>
    </mxGraphModel>
  </diagram>
</mxfile>
